<svg xmlns="http://www.w3.org/2000/svg" data-icon-name="icon-tabler-hierarchy-3" width="24" height="24" viewBox="0 0 24 24" stroke-width="1.5" stroke="currentColor" fill="none" stroke-linecap="round" stroke-linejoin="round">
    <path stroke="none" d="M0 0h24v24H0z"/>
    <path d="M10 5a2 2 0 1 0 4 0 2 2 0 1 0-4 0m-4 7a2 2 0 1 0 4 0 2 2 0 1 0-4 0m4 7a2 2 0 1 0 4 0 2 2 0 1 0-4 0m8 0a2 2 0 1 0 4 0 2 2 0 1 0-4 0M2 19a2 2 0 1 0 4 0 2 2 0 1 0-4 0m12-7a2 2 0 1 0 4 0 2 2 0 1 0-4 0m-9 5 2-3m2-4 2-3m2 0 2 3m2 4 2 3m-4-3-2 3m-4-3 2 3"/>
</svg>
